<svg width="124" height="25" viewBox="0 0 124 25" fill="none" xmlns="http://www.w3.org/2000/svg">
<path d="M122.729 20.5792C122.559 20.7285 122.281 20.8672 121.897 20.9952C121.535 21.1019 121.14 21.2085 120.713 21.3152C120.287 21.4005 119.871 21.4752 119.465 21.5392C119.06 21.6032 118.751 21.6352 118.537 21.6352C117.983 21.6779 117.417 21.6352 116.841 21.5072C116.265 21.3579 115.732 21.1445 115.241 20.8672C114.665 20.5685 114.143 20.1845 113.673 19.7152C113.204 19.2245 112.809 18.7019 112.489 18.1472C112.169 17.5925 111.924 16.9952 111.753 16.3552C111.604 15.6939 111.519 15.0325 111.497 14.3712C111.476 13.1979 111.679 12.0672 112.105 10.9792C112.553 9.89121 113.151 8.96321 113.897 8.19521C114.665 7.42721 115.561 6.88321 116.585 6.56321C117.609 6.22187 118.697 6.20054 119.849 6.49921C120.404 6.64854 120.927 6.87254 121.417 7.17121C121.908 7.46988 122.335 7.83254 122.697 8.25921C123.06 8.68588 123.327 9.17654 123.497 9.73121C123.689 10.2859 123.785 10.8619 123.785 11.4592C123.785 12.0565 123.689 12.6432 123.497 13.2192C123.327 13.7952 123.06 14.2965 122.697 14.7232C122.356 15.1285 121.94 15.4592 121.449 15.7152C120.98 15.9712 120.489 16.1525 119.977 16.2592C119.167 16.4299 118.345 16.4725 117.513 16.3872C116.681 16.3019 115.86 16.2059 115.049 16.0992C115.263 16.6112 115.583 17.0805 116.009 17.5072C116.457 17.9339 116.948 18.2112 117.481 18.3392C117.972 18.4672 118.463 18.4992 118.953 18.4352C119.444 18.3499 119.924 18.2432 120.393 18.1152C120.436 18.1152 120.564 18.0832 120.777 18.0192C121.012 17.9339 121.151 17.8805 121.193 17.8592C121.62 17.7525 122.004 17.7845 122.345 17.9552C122.687 18.1045 122.943 18.3285 123.113 18.6272C123.284 18.9259 123.348 19.2565 123.305 19.6192C123.263 19.9819 123.071 20.3019 122.729 20.5792ZM114.889 12.8352C115.188 12.8779 115.583 12.9312 116.073 12.9952C116.585 13.0592 117.108 13.1125 117.641 13.1552C118.175 13.1765 118.665 13.1659 119.113 13.1232C119.583 13.0592 119.935 12.9312 120.169 12.7392C120.425 12.5259 120.575 12.2059 120.617 11.7792C120.66 11.3312 120.617 10.9579 120.489 10.6592C120.383 10.4245 120.223 10.2219 120.009 10.0512C119.796 9.88054 119.551 9.75254 119.273 9.66721C119.017 9.56054 118.74 9.50721 118.441 9.50721C118.164 9.48588 117.897 9.50721 117.641 9.57121C117.193 9.69921 116.777 9.93388 116.393 10.2752C115.625 10.9792 115.124 11.8325 114.889 12.8352Z" fill="url(#paint0_linear_2_118)"/>
<path d="M104.367 23.2672C104.388 23.5232 104.335 23.7685 104.207 24.0032C104.079 24.2379 103.908 24.4299 103.695 24.5792C103.481 24.7499 103.236 24.8565 102.959 24.8992C102.703 24.9419 102.457 24.8992 102.223 24.7712C101.967 24.6645 101.732 24.4939 101.519 24.2592C101.327 24.0459 101.22 23.8112 101.199 23.5552C101.028 21.7419 100.889 19.9499 100.783 18.1792C100.676 16.4085 100.676 14.6165 100.783 12.8032C100.313 12.8672 99.844 12.9312 99.3746 12.9952C98.9266 13.0379 98.468 13.0805 97.9986 13.1232C97.956 13.1445 97.924 13.1659 97.9026 13.1872C97.8813 13.2085 97.8493 13.2299 97.8066 13.2512C97.444 13.4645 97.0706 13.5285 96.6866 13.4432C96.452 13.3792 96.228 13.3045 96.0146 13.2192C95.8013 13.1125 95.62 12.9739 95.4706 12.8032C95.364 12.6325 95.268 12.4619 95.1826 12.2912C95.1186 12.1205 95.0973 11.9392 95.1186 11.7472C95.14 11.5765 95.1826 11.3952 95.2466 11.2032C95.3106 11.0112 95.396 10.8405 95.5026 10.6912C95.652 10.5205 95.8333 10.3925 96.0466 10.3072C96.26 10.2005 96.4733 10.1259 96.6866 10.0832C96.836 10.0619 97.1133 10.0299 97.5186 9.98721C97.9453 9.92321 98.3933 9.86988 98.8626 9.82721C99.3533 9.76321 99.8013 9.70988 100.207 9.66721C100.633 9.62454 100.921 9.59254 101.071 9.57121C101.177 8.54721 101.295 7.54454 101.423 6.56321C101.572 5.56054 101.732 4.55787 101.903 3.55521C101.924 3.44854 101.956 3.26721 101.999 3.01121C102.041 2.75521 102.084 2.48854 102.127 2.21121C102.191 1.93387 102.244 1.67787 102.287 1.44321C102.351 1.18721 102.415 1.00587 102.479 0.899208C102.735 0.429874 103.119 0.163208 103.631 0.0992085C104.164 0.0352081 104.612 0.184541 104.975 0.547208C105.167 0.739209 105.295 0.941875 105.359 1.15521C105.38 1.21921 105.401 1.32588 105.423 1.47521C105.465 1.62454 105.508 1.78454 105.551 1.95521C105.593 2.10454 105.625 2.25387 105.647 2.40321C105.668 2.53121 105.679 2.62721 105.679 2.69121C105.657 2.92588 105.593 3.14988 105.487 3.36321C105.38 3.57654 105.241 3.75788 105.071 3.90721C104.772 5.69921 104.516 7.49121 104.303 9.28321C104.495 9.26188 104.772 9.24054 105.135 9.21921C105.497 9.17654 105.871 9.15521 106.255 9.15521C106.639 9.15521 106.991 9.17654 107.311 9.21921C107.652 9.24054 107.908 9.30454 108.079 9.41121C108.505 9.70988 108.751 10.1152 108.815 10.6272C108.9 11.1179 108.761 11.5445 108.399 11.9072C108.164 12.1419 107.876 12.2912 107.535 12.3552C107.428 12.3765 107.204 12.3872 106.863 12.3872C106.521 12.3659 106.297 12.3552 106.191 12.3552C105.828 12.3765 105.465 12.3979 105.103 12.4192C104.74 12.4405 104.377 12.4725 104.015 12.5152C103.908 14.3072 103.897 16.0992 103.983 17.8912C104.068 19.6619 104.196 21.4539 104.367 23.2672Z" fill="url(#paint1_linear_2_118)"/>
<path d="M83.9094 21.8272C83.4187 22.0619 82.8854 22.2432 82.3094 22.3712C81.7334 22.4992 81.1787 22.4992 80.6454 22.3712C79.5147 22.1152 78.6401 21.4859 78.0214 20.4832C77.6374 19.8645 77.3707 19.1925 77.2214 18.4672C77.0721 17.7205 77.0187 16.9739 77.0614 16.2272C77.1254 14.9472 77.3601 13.6885 77.7654 12.4512C78.1707 11.2139 78.7467 10.0832 79.4934 9.05921C79.9201 8.44054 80.4214 7.88588 80.9974 7.39521C81.5947 6.88321 82.2347 6.49921 82.9174 6.24321C83.3654 6.07254 83.8987 5.95521 84.5174 5.89121C85.1574 5.82721 85.7974 5.82721 86.4374 5.89121C87.0774 5.95521 87.6747 6.08321 88.2294 6.27521C88.8054 6.46721 89.2641 6.73387 89.6054 7.07521C89.9254 6.92587 90.2347 6.88321 90.5334 6.94721C90.8534 6.98987 91.1201 7.09654 91.3334 7.26721C91.5681 7.43787 91.7387 7.67254 91.8454 7.97121C91.9734 8.24854 92.0054 8.55787 91.9414 8.89921C91.7921 9.60321 91.6427 10.3072 91.4934 11.0112C91.3654 11.6939 91.2694 12.3872 91.2054 13.0912C91.1627 13.5392 91.1414 13.9872 91.1414 14.4352C91.1414 14.8832 91.1521 15.3312 91.1734 15.7792C91.1734 15.8859 91.184 16.0565 91.2054 16.2912C91.2267 16.5045 91.2481 16.7392 91.2694 16.9952C91.3121 17.2299 91.3654 17.4645 91.4294 17.6992C91.4934 17.9125 91.5574 18.0619 91.6214 18.1472C91.6427 18.1899 91.6854 18.2325 91.7494 18.2752C91.8347 18.2965 91.8987 18.3179 91.9414 18.3392C92.3681 18.6379 92.6134 19.0432 92.6774 19.5552C92.7627 20.0459 92.6241 20.4725 92.2614 20.8352C91.792 21.2832 91.2481 21.4112 90.6294 21.2192C90.0321 21.0272 89.5307 20.6752 89.1254 20.1632C88.8267 19.8005 88.6027 19.3952 88.4534 18.9472C88.3041 18.4779 88.1974 17.9979 88.1334 17.5072C87.6214 18.4032 87.0134 19.2352 86.3094 20.0032C85.6267 20.7712 84.8267 21.3792 83.9094 21.8272ZM81.2534 19.2352C81.4027 19.2779 81.5841 19.2779 81.7974 19.2352C82.0107 19.1712 82.2241 19.0859 82.4374 18.9792C82.6721 18.8512 82.8854 18.7232 83.0774 18.5952C83.2694 18.4672 83.4294 18.3499 83.5574 18.2432C84.1761 17.6672 84.7094 17.0059 85.1574 16.2592C85.6267 15.4912 86.0427 14.7125 86.4054 13.9232C86.6401 13.3685 86.8747 12.8245 87.1094 12.2912C87.3441 11.7365 87.5681 11.1819 87.7814 10.6272L87.3974 9.37921C87.0134 9.22987 86.6614 9.14454 86.3414 9.12321C85.9147 9.05921 85.4774 9.03787 85.0294 9.05921C84.6027 9.05921 84.1974 9.15521 83.8134 9.34721C83.1947 9.66721 82.6401 10.1579 82.1494 10.8192C81.6801 11.4592 81.2854 12.1845 80.9654 12.9952C80.6667 13.7845 80.4641 14.6059 80.3574 15.4592C80.2507 16.2912 80.2507 17.0592 80.3574 17.7632C80.4001 17.9979 80.4961 18.2859 80.6454 18.6272C80.8161 18.9685 81.0187 19.1712 81.2534 19.2352Z" fill="url(#paint2_linear_2_118)"/>
<path d="M73.4246 21.9872C73.1686 22.2432 72.8806 22.3925 72.5606 22.4352C72.262 22.4779 71.974 22.4352 71.6966 22.3072C71.4193 22.2005 71.1846 22.0192 70.9926 21.7632C70.8006 21.5072 70.7046 21.1979 70.7046 20.8352C70.6833 19.8539 70.662 18.8725 70.6406 17.8912C70.6406 16.9099 70.6086 15.9285 70.5446 14.9472C70.502 14.2859 70.438 13.6352 70.3526 12.9952C70.2886 12.6325 70.214 12.2805 70.1286 11.9392C70.0646 11.5765 69.9473 11.2245 69.7766 10.8832C69.6913 10.7125 69.5953 10.5525 69.4886 10.4032C69.4033 10.2539 69.2753 10.1365 69.1046 10.0512C68.7633 9.85921 68.39 9.80587 67.9846 9.89121C67.5793 9.97654 67.206 10.1152 66.8646 10.3072C66.0113 10.7979 65.2966 11.4699 64.7206 12.3232C64.1446 13.1765 63.6966 14.0619 63.3766 14.9792C63.1846 15.5979 62.9926 16.2165 62.8006 16.8352C62.63 17.4325 62.47 18.0405 62.3206 18.6592C62.1926 19.2139 62.1286 19.7579 62.1286 20.2912C62.1286 20.5259 62.118 20.7605 62.0966 20.9952C62.0753 21.2085 62.0006 21.4005 61.8726 21.5712C61.766 21.7205 61.638 21.8592 61.4886 21.9872C61.3606 22.1152 61.2113 22.2005 61.0406 22.2432C60.9126 22.2859 60.774 22.3179 60.6246 22.3392C60.4753 22.3605 60.3366 22.3499 60.2086 22.3072C59.9313 22.2432 59.6646 22.1152 59.4086 21.9232C59.1526 21.7099 58.982 21.4645 58.8966 21.1872C58.8113 20.8672 58.7686 20.5365 58.7686 20.1952C58.7686 19.8539 58.7793 19.5232 58.8006 19.2032C58.8646 18.1792 58.9286 17.1765 58.9926 16.1952C59.078 15.1925 59.142 14.1792 59.1846 13.1552C59.206 12.6219 59.206 12.0885 59.1846 11.5552C59.1633 11.0219 59.0993 10.4992 58.9926 9.98721C58.9286 9.75254 58.822 9.46454 58.6726 9.12321C58.5233 8.76054 58.3313 8.54721 58.0966 8.48321C57.9686 8.44054 57.8406 8.42987 57.7126 8.45121C57.5846 8.47254 57.4566 8.50454 57.3286 8.54721C56.966 8.63254 56.6353 8.77121 56.3366 8.96321C56.038 9.15521 55.75 9.36854 55.4726 9.60321C54.918 10.0725 54.4486 10.6272 54.0646 11.2672C53.702 11.9072 53.4033 12.5685 53.1686 13.2512C52.8273 14.2965 52.614 15.3739 52.5286 16.4832C52.4646 17.5925 52.454 18.6912 52.4966 19.7792C52.518 20.0139 52.5286 20.2485 52.5286 20.4832C52.55 20.7179 52.518 20.9525 52.4326 21.1872C52.2406 21.6779 51.8886 21.9979 51.3766 22.1472C50.886 22.2965 50.4273 22.2219 50.0006 21.9232C49.8726 21.8379 49.7553 21.7312 49.6486 21.6032C49.542 21.4752 49.4673 21.3259 49.4246 21.1552C49.3606 20.9632 49.2966 20.6112 49.2326 20.0992C49.19 19.5659 49.1473 19.0112 49.1046 18.4352C49.062 17.8592 49.0193 17.3152 48.9766 16.8032C48.9553 16.2912 48.9446 15.9285 48.9446 15.7152C48.9233 14.6059 48.9873 13.5072 49.1366 12.4192C49.3073 11.3099 49.478 10.2005 49.6486 9.09121C49.67 9.00587 49.6913 8.85654 49.7126 8.64321C49.7553 8.40854 49.798 8.16321 49.8406 7.90721C49.9046 7.65121 49.958 7.40588 50.0006 7.17121C50.0433 6.93654 50.086 6.77654 50.1286 6.69121C50.2993 6.26454 50.5553 5.96587 50.8966 5.79521C51.238 5.60321 51.5793 5.53921 51.9206 5.60321C52.2833 5.66721 52.6033 5.83788 52.8806 6.11521C53.158 6.37121 53.318 6.73387 53.3606 7.20321C54.1926 6.45654 55.1206 5.91254 56.1446 5.57121C56.998 5.27254 57.8406 5.19787 58.6726 5.34721C59.3126 5.47521 59.878 5.74188 60.3686 6.14721C60.9446 6.63788 61.382 7.25654 61.6806 8.00321C61.9793 8.74988 62.1713 9.49654 62.2566 10.2432C63.1526 9.09121 64.2193 8.15254 65.4566 7.42721C66.1393 7.04321 66.8753 6.79787 67.6646 6.69121C68.2193 6.62721 68.774 6.65921 69.3286 6.78721C69.9046 6.89387 70.4273 7.09654 70.8966 7.39521C71.2166 7.60854 71.5153 7.86454 71.7926 8.16321C72.07 8.44054 72.294 8.76054 72.4646 9.12321C72.934 10.0192 73.2433 10.9685 73.3926 11.9712C73.5633 12.9525 73.6806 13.9445 73.7446 14.9472C73.8086 15.9285 73.8406 16.9099 73.8406 17.8912C73.862 18.8512 73.8833 19.8219 73.9046 20.8032C73.9046 21.2725 73.7446 21.6672 73.4246 21.9872Z" fill="url(#paint3_linear_2_118)"/>
<path d="M36.9094 21.8272C36.4187 22.0619 35.8854 22.2432 35.3094 22.3712C34.7334 22.4992 34.1787 22.4992 33.6454 22.3712C32.5147 22.1152 31.6401 21.4859 31.0214 20.4832C30.6374 19.8645 30.3707 19.1925 30.2214 18.4672C30.0721 17.7205 30.0187 16.9739 30.0614 16.2272C30.1254 14.9472 30.3601 13.6885 30.7654 12.4512C31.1707 11.2139 31.7467 10.0832 32.4934 9.05921C32.9201 8.44054 33.4214 7.88588 33.9974 7.39521C34.5947 6.88321 35.2347 6.49921 35.9174 6.24321C36.3654 6.07254 36.8987 5.95521 37.5174 5.89121C38.1574 5.82721 38.7974 5.82721 39.4374 5.89121C40.0774 5.95521 40.6747 6.08321 41.2294 6.27521C41.8054 6.46721 42.2641 6.73387 42.6054 7.07521C42.9254 6.92587 43.2347 6.88321 43.5334 6.94721C43.8534 6.98987 44.1201 7.09654 44.3334 7.26721C44.5681 7.43787 44.7387 7.67254 44.8454 7.97121C44.9734 8.24854 45.0054 8.55787 44.9414 8.89921C44.7921 9.60321 44.6427 10.3072 44.4934 11.0112C44.3654 11.6939 44.2694 12.3872 44.2054 13.0912C44.1627 13.5392 44.1414 13.9872 44.1414 14.4352C44.1414 14.8832 44.1521 15.3312 44.1734 15.7792C44.1734 15.8859 44.1841 16.0565 44.2054 16.2912C44.2267 16.5045 44.2481 16.7392 44.2694 16.9952C44.3121 17.2299 44.3654 17.4645 44.4294 17.6992C44.4934 17.9125 44.5574 18.0619 44.6214 18.1472C44.6427 18.1899 44.6854 18.2325 44.7494 18.2752C44.8347 18.2965 44.8987 18.3179 44.9414 18.3392C45.3681 18.6379 45.6134 19.0432 45.6774 19.5552C45.7627 20.0459 45.6241 20.4725 45.2614 20.8352C44.7921 21.2832 44.2481 21.4112 43.6294 21.2192C43.0321 21.0272 42.5307 20.6752 42.1254 20.1632C41.8267 19.8005 41.6027 19.3952 41.4534 18.9472C41.3041 18.4779 41.1974 17.9979 41.1334 17.5072C40.6214 18.4032 40.0134 19.2352 39.3094 20.0032C38.6267 20.7712 37.8267 21.3792 36.9094 21.8272ZM34.2534 19.2352C34.4027 19.2779 34.5841 19.2779 34.7974 19.2352C35.0107 19.1712 35.2241 19.0859 35.4374 18.9792C35.6721 18.8512 35.8854 18.7232 36.0774 18.5952C36.2694 18.4672 36.4294 18.3499 36.5574 18.2432C37.1761 17.6672 37.7094 17.0059 38.1574 16.2592C38.6267 15.4912 39.0427 14.7125 39.4054 13.9232C39.6401 13.3685 39.8747 12.8245 40.1094 12.2912C40.3441 11.7365 40.5681 11.1819 40.7814 10.6272L40.3974 9.37921C40.0134 9.22987 39.6614 9.14454 39.3414 9.12321C38.9147 9.05921 38.4774 9.03787 38.0294 9.05921C37.6027 9.05921 37.1974 9.15521 36.8134 9.34721C36.1947 9.66721 35.6401 10.1579 35.1494 10.8192C34.6801 11.4592 34.2854 12.1845 33.9654 12.9952C33.6667 13.7845 33.4641 14.6059 33.3574 15.4592C33.2507 16.2912 33.2507 17.0592 33.3574 17.7632C33.4001 17.9979 33.4961 18.2859 33.6454 18.6272C33.8161 18.9685 34.0187 19.1712 34.2534 19.2352Z" fill="url(#paint4_linear_2_118)"/>
<path d="M18.5716 22.4672C18.3796 22.6592 18.1556 22.7765 17.8996 22.8192C17.6436 22.8832 17.3876 22.8832 17.1316 22.8192C16.8756 22.7552 16.641 22.6272 16.4276 22.4352C16.2143 22.2645 16.0756 22.0512 16.0116 21.7952C15.969 21.5819 15.9476 21.3579 15.9476 21.1232C15.969 20.8672 16.0436 20.6432 16.1716 20.4512C16.4063 20.1312 16.5876 19.7899 16.7156 19.4272C16.865 19.0645 17.025 18.7019 17.1956 18.3392C17.537 17.5712 17.8783 16.8139 18.2196 16.0672C18.5823 15.2992 18.9556 14.5419 19.3396 13.7952C18.785 12.8352 18.2303 11.8859 17.6756 10.9472C17.1423 9.98721 16.5876 9.02721 16.0116 8.06721C15.969 7.98188 15.8623 7.82188 15.6916 7.58721C15.521 7.33121 15.425 7.14988 15.4036 7.04321C15.361 6.87254 15.329 6.69121 15.3076 6.49921C15.2863 6.30721 15.3183 6.12588 15.4036 5.95521C15.4676 5.82721 15.5316 5.70987 15.5956 5.60321C15.681 5.47521 15.777 5.36854 15.8836 5.28321C16.2036 5.02721 16.545 4.89921 16.9076 4.89921C17.2916 4.89921 17.6436 5.03787 17.9636 5.31521C18.0916 5.42187 18.1983 5.53921 18.2836 5.66721C18.369 5.79521 18.4543 5.92321 18.5396 6.05121C19.009 6.79788 19.457 7.54454 19.8836 8.29121C20.3103 9.03787 20.737 9.78454 21.1636 10.5312C21.505 9.97654 21.857 9.43254 22.2196 8.89921C22.5823 8.36587 22.9556 7.85388 23.3396 7.36321C23.4036 7.27787 23.4996 7.16054 23.6276 7.01121C23.7556 6.86187 23.8836 6.71254 24.0116 6.56321C24.161 6.39254 24.2996 6.24321 24.4276 6.11521C24.577 5.96588 24.6943 5.86988 24.7796 5.82721C24.9503 5.74188 25.1316 5.67788 25.3236 5.63521C25.537 5.59254 25.7396 5.59254 25.9316 5.63521C26.4436 5.74187 26.8276 6.01921 27.0836 6.46721C27.3396 6.91521 27.3503 7.38454 27.1156 7.87521C27.073 7.98187 27.0196 8.08854 26.9556 8.19521C26.8916 8.30187 26.8063 8.38721 26.6996 8.45121C26.465 8.62187 26.1663 8.94187 25.8036 9.41121C25.441 9.88054 25.0676 10.4032 24.6836 10.9792C24.321 11.5339 23.9796 12.0672 23.6596 12.5792C23.361 13.0912 23.1476 13.4752 23.0196 13.7312C23.1263 13.9232 23.3396 14.3179 23.6596 14.9152C24.001 15.5125 24.3636 16.1525 24.7476 16.8352C25.1316 17.4965 25.4836 18.1259 25.8036 18.7232C26.145 19.2992 26.369 19.6832 26.4756 19.8752C26.561 20.0032 26.6463 20.1419 26.7316 20.2912C26.817 20.4405 26.8703 20.6005 26.8916 20.7712C26.913 20.9419 26.9023 21.1232 26.8596 21.3152C26.8383 21.5072 26.7743 21.6779 26.6676 21.8272C26.5823 21.9339 26.497 22.0405 26.4116 22.1472C26.3263 22.2539 26.2196 22.3392 26.0916 22.4032C25.921 22.4885 25.7396 22.5525 25.5476 22.5952C25.3556 22.6379 25.1743 22.6379 25.0036 22.5952C24.833 22.5525 24.6623 22.4779 24.4916 22.3712C24.321 22.2859 24.1823 22.1685 24.0756 22.0192C23.969 21.8699 23.777 21.5605 23.4996 21.0912C23.2223 20.6219 22.9343 20.1205 22.6356 19.5872C22.337 19.0539 22.049 18.5525 21.7716 18.0832C21.5156 17.6139 21.345 17.2939 21.2596 17.1232C21.1956 17.2725 21.057 17.5712 20.8436 18.0192C20.6516 18.4672 20.4383 18.9472 20.2036 19.4592C19.969 19.9499 19.745 20.4192 19.5316 20.8672C19.3396 21.3152 19.2116 21.6032 19.1476 21.7312C19.0836 21.8805 18.9983 22.0085 18.8916 22.1152C18.785 22.2432 18.6783 22.3605 18.5716 22.4672Z" fill="url(#paint5_linear_2_118)"/>
<path d="M11.4481 20.5792C11.2775 20.7285 11.0001 20.8672 10.6161 20.9952C10.2535 21.1019 9.85881 21.2085 9.43214 21.3152C9.00547 21.4005 8.58947 21.4752 8.18414 21.5392C7.77881 21.6032 7.46947 21.6352 7.25614 21.6352C6.70147 21.6779 6.13614 21.6352 5.56014 21.5072C4.98414 21.3579 4.45081 21.1445 3.96014 20.8672C3.38414 20.5685 2.86147 20.1845 2.39214 19.7152C1.92281 19.2245 1.52814 18.7019 1.20814 18.1472C0.888139 17.5925 0.642805 16.9952 0.472139 16.3552C0.322805 15.6939 0.237472 15.0325 0.216139 14.3712C0.194805 13.1979 0.397472 12.0672 0.824139 10.9792C1.27214 9.89121 1.86947 8.96321 2.61614 8.19521C3.38414 7.42721 4.28014 6.88321 5.30414 6.56321C6.32814 6.22187 7.41614 6.20054 8.56814 6.49921C9.12281 6.64854 9.64547 6.87254 10.1361 7.17121C10.6268 7.46988 11.0535 7.83254 11.4161 8.25921C11.7788 8.68588 12.0455 9.17654 12.2161 9.73121C12.4081 10.2859 12.5041 10.8619 12.5041 11.4592C12.5041 12.0565 12.4081 12.6432 12.2161 13.2192C12.0455 13.7952 11.7788 14.2965 11.4161 14.7232C11.0748 15.1285 10.6588 15.4592 10.1681 15.7152C9.69881 15.9712 9.20814 16.1525 8.69614 16.2592C7.88547 16.4299 7.06414 16.4725 6.23214 16.3872C5.40014 16.3019 4.57881 16.2059 3.76814 16.0992C3.98147 16.6112 4.30147 17.0805 4.72814 17.5072C5.17614 17.9339 5.66681 18.2112 6.20014 18.3392C6.69081 18.4672 7.18147 18.4992 7.67214 18.4352C8.16281 18.3499 8.64281 18.2432 9.11214 18.1152C9.15481 18.1152 9.28281 18.0832 9.49614 18.0192C9.73081 17.9339 9.86947 17.8805 9.91214 17.8592C10.3388 17.7525 10.7228 17.7845 11.0641 17.9552C11.4055 18.1045 11.6615 18.3285 11.8321 18.6272C12.0028 18.9259 12.0668 19.2565 12.0241 19.6192C11.9815 19.9819 11.7895 20.3019 11.4481 20.5792ZM3.60814 12.8352C3.90681 12.8779 4.30147 12.9312 4.79214 12.9952C5.30414 13.0592 5.82681 13.1125 6.36014 13.1552C6.89347 13.1765 7.38414 13.1659 7.83214 13.1232C8.30147 13.0592 8.65347 12.9312 8.88814 12.7392C9.14414 12.5259 9.29347 12.2059 9.33614 11.7792C9.37881 11.3312 9.33614 10.9579 9.20814 10.6592C9.10147 10.4245 8.94147 10.2219 8.72814 10.0512C8.51481 9.88054 8.26947 9.75254 7.99214 9.66721C7.73614 9.56054 7.45881 9.50721 7.16014 9.50721C6.88281 9.48588 6.61614 9.50721 6.36014 9.57121C5.91214 9.69921 5.49614 9.93388 5.11214 10.2752C4.34414 10.9792 3.84281 11.8325 3.60814 12.8352Z" fill="url(#paint6_linear_2_118)"/>
<defs>
<linearGradient id="paint0_linear_2_118" x1="-1132.86" y1="11.1172" x2="144.124" y2="11.117" gradientUnits="userSpaceOnUse">
<stop stop-color="#E127FF"/>
<stop offset="1" stop-color="#106CF7"/>
</linearGradient>
<linearGradient id="paint1_linear_2_118" x1="-866.616" y1="13.1152" x2="276.526" y2="13.1149" gradientUnits="userSpaceOnUse">
<stop stop-color="#E127FF"/>
<stop offset="1" stop-color="#106CF7"/>
</linearGradient>
<linearGradient id="paint2_linear_2_118" x1="-617.371" y1="10.9466" x2="385.113" y2="10.9465" gradientUnits="userSpaceOnUse">
<stop stop-color="#E127FF"/>
<stop offset="1" stop-color="#106CF7"/>
</linearGradient>
<linearGradient id="paint3_linear_2_118" x1="-247.939" y1="11.4208" x2="380.706" y2="11.4207" gradientUnits="userSpaceOnUse">
<stop stop-color="#E127FF"/>
<stop offset="1" stop-color="#106CF7"/>
</linearGradient>
<linearGradient id="paint4_linear_2_118" x1="-246.373" y1="10.9466" x2="756.111" y2="10.9465" gradientUnits="userSpaceOnUse">
<stop stop-color="#E127FF"/>
<stop offset="1" stop-color="#106CF7"/>
</linearGradient>
<linearGradient id="paint5_linear_2_118" x1="-169.869" y1="11.4387" x2="1139.8" y2="11.4384" gradientUnits="userSpaceOnUse">
<stop stop-color="#E127FF"/>
<stop offset="1" stop-color="#106CF7"/>
</linearGradient>
<linearGradient id="paint6_linear_2_118" x1="-1.19186" y1="13.1152" x2="125.808" y2="13.1152" gradientUnits="userSpaceOnUse">
<stop stop-color="#E127FF"/>
<stop offset="1" stop-color="#106CF7"/>
</linearGradient>
</defs>
</svg>
