<svg width="24" height="24" viewBox="0 0 24 24" fill="none" xmlns="http://www.w3.org/2000/svg">
<rect width="24" height="24" rx="12" fill="url(#paint0_linear_2_120)"/>
<path d="M16.0548 18.023C15.902 18.1591 15.6538 18.2855 15.3101 18.4021C14.9855 18.4993 14.6322 18.5966 14.2503 18.6938C13.8684 18.7715 13.4961 18.8396 13.1333 18.8979C12.7705 18.9563 12.4936 18.9854 12.3027 18.9854C11.8062 19.0243 11.3002 18.9854 10.7846 18.8688C10.2691 18.7327 9.79169 18.5382 9.35251 18.2855C8.83695 18.0133 8.36913 17.6633 7.94904 17.2355C7.52895 16.7883 7.1757 16.312 6.88927 15.8065C6.60285 15.301 6.38326 14.7565 6.2305 14.1733C6.09684 13.5705 6.02046 12.9678 6.00136 12.365C5.98227 11.2957 6.16367 10.2652 6.54557 9.27359C6.94656 8.28199 7.48122 7.43622 8.14953 6.73627C8.83695 6.03632 9.63893 5.54052 10.5555 5.24887C11.472 4.93778 12.4459 4.91834 13.477 5.19054C13.9735 5.32664 14.4413 5.5308 14.8805 5.803C15.3197 6.0752 15.7015 6.40574 16.0262 6.7946C16.3508 7.18346 16.5895 7.63065 16.7422 8.13617C16.9141 8.64169 17 9.16665 17 9.71106C17 10.2555 16.9141 10.7902 16.7422 11.3151C16.5895 11.8401 16.3508 12.297 16.0262 12.6859C15.7206 13.0553 15.3483 13.3566 14.9091 13.59C14.489 13.8233 14.0498 13.9885 13.5916 14.0858C12.866 14.2413 12.1308 14.2802 11.3861 14.2024C10.6414 14.1246 9.90626 14.0371 9.18066 13.9399C9.37161 14.4066 9.65803 14.8343 10.0399 15.2232C10.4409 15.612 10.8801 15.8648 11.3575 15.9815C11.7967 16.0981 12.2358 16.1273 12.675 16.069C13.1142 15.9912 13.5438 15.894 13.9639 15.7773C14.0021 15.7773 14.1167 15.7481 14.3076 15.6898C14.5177 15.612 14.6418 15.5634 14.68 15.544C15.0619 15.4468 15.4056 15.4759 15.7111 15.6315C16.0166 15.7676 16.2458 15.9717 16.3985 16.2439C16.5513 16.5161 16.6086 16.8175 16.5704 17.148C16.5322 17.4786 16.3603 17.7702 16.0548 18.023ZM9.03745 10.9651C9.30477 11.004 9.65803 11.0526 10.0972 11.111C10.5555 11.1693 11.0233 11.2179 11.5007 11.2568C11.9781 11.2762 12.4172 11.2665 12.8182 11.2276C13.2383 11.1693 13.5534 11.0526 13.7634 10.8776C13.9926 10.6832 14.1262 10.3916 14.1644 10.0027C14.2026 9.5944 14.1644 9.25415 14.0498 8.98195C13.9544 8.76807 13.8112 8.58336 13.6202 8.42782C13.4293 8.27227 13.2097 8.15561 12.9614 8.07784C12.7323 7.98063 12.4841 7.93202 12.2167 7.93202C11.9685 7.91258 11.7298 7.93202 11.5007 7.99035C11.0997 8.10701 10.7273 8.32088 10.3836 8.63197C9.69622 9.27359 9.24749 10.0513 9.03745 10.9651Z" fill="white"/>
<defs>
<linearGradient id="paint0_linear_2_120" x1="0" y1="24" x2="24" y2="0" gradientUnits="userSpaceOnUse">
<stop stop-color="#E127FF"/>
<stop offset="1" stop-color="#106CF7"/>
</linearGradient>
</defs>
</svg>
